<svg width="65" height="49" viewBox="0 0 65 49" fill="none" xmlns="http://www.w3.org/2000/svg">
<g filter="url(#filter0_dd_13_789)">
<rect x="9.18848" y="4.7063" width="46.6143" height="30.0304" rx="5.37857" fill="white"/>
<rect x="9.07642" y="4.59425" width="46.8384" height="30.2545" rx="5.49062" stroke="#D6DCE5" stroke-width="0.224107"/>
<path d="M32.2107 14.8275L30.0365 24.9911H27.4074L29.5819 14.8275H32.2107ZM43.2724 21.3902L44.6566 17.5734L45.4531 21.3902H43.2724ZM46.2058 24.9911H48.6377L46.5156 14.8275H44.2709C43.7665 14.8275 43.3409 15.1209 43.1514 15.5732L39.207 24.9911H41.968L42.5161 23.4734H45.8893L46.2058 24.9911ZM39.344 21.6726C39.3553 18.9901 35.6344 18.8425 35.6601 17.6442C35.6678 17.2791 36.0156 16.8918 36.7751 16.7924C37.1524 16.7432 38.1898 16.7055 39.3678 17.2475L39.8291 15.0923C39.1964 14.8626 38.3822 14.6416 37.3695 14.6416C34.771 14.6416 32.9419 16.0232 32.9265 18.0016C32.9101 19.4646 34.2322 20.281 35.2284 20.7674C36.2527 21.2657 36.5969 21.5848 36.5924 22.0303C36.5856 22.7126 35.7753 23.0131 35.0193 23.025C33.6972 23.0459 32.93 22.6682 32.3185 22.3832L31.8421 24.6102C32.4562 24.8923 33.5901 25.1374 34.7665 25.15C37.5281 25.15 39.335 23.7854 39.344 21.6726ZM28.4538 14.8275L24.1941 24.9911H21.4144L19.3184 16.8799C19.191 16.3803 19.0803 16.1976 18.6933 15.9869C18.0619 15.6443 17.018 15.3223 16.0996 15.1228L16.1623 14.8275H20.636C21.206 14.8275 21.7191 15.2071 21.8484 15.8637L22.9556 21.7453L25.6915 14.8275H28.4538Z" fill="#1434CB"/>
</g>
<defs>
<filter id="filter0_dd_13_789" x="6.96182e-05" y="3.48091e-05" width="64.9911" height="48.4071" filterUnits="userSpaceOnUse" color-interpolation-filters="sRGB">
<feFlood flood-opacity="0" result="BackgroundImageFix"/>
<feColorMatrix in="SourceAlpha" type="matrix" values="0 0 0 0 0 0 0 0 0 0 0 0 0 0 0 0 0 0 127 0" result="hardAlpha"/>
<feOffset dy="0.448214"/>
<feGaussianBlur stdDeviation="2.24107"/>
<feColorMatrix type="matrix" values="0 0 0 0 0.717647 0 0 0 0 0.717647 0 0 0 0 0.717647 0 0 0 0.08 0"/>
<feBlend mode="normal" in2="BackgroundImageFix" result="effect1_dropShadow_13_789"/>
<feColorMatrix in="SourceAlpha" type="matrix" values="0 0 0 0 0 0 0 0 0 0 0 0 0 0 0 0 0 0 127 0" result="hardAlpha"/>
<feOffset dy="4.48214"/>
<feGaussianBlur stdDeviation="4.48214"/>
<feColorMatrix type="matrix" values="0 0 0 0 0.717647 0 0 0 0 0.717647 0 0 0 0 0.717647 0 0 0 0.08 0"/>
<feBlend mode="normal" in2="effect1_dropShadow_13_789" result="effect2_dropShadow_13_789"/>
<feBlend mode="normal" in="SourceGraphic" in2="effect2_dropShadow_13_789" result="shape"/>
</filter>
</defs>
</svg>
