<svg width="65" height="49" viewBox="0 0 65 49" fill="none" xmlns="http://www.w3.org/2000/svg">
<g filter="url(#filter0_dd_13_791)">
<rect x="9.18848" y="4.7063" width="46.6143" height="30.0304" rx="5.37857" fill="white"/>
<rect x="9.07642" y="4.59425" width="46.8384" height="30.2545" rx="5.49062" stroke="#D6DCE5" stroke-width="0.224107"/>
<path d="M35.844 13.5547H28.9807V25.8882H35.844V13.5547Z" fill="#FF5F00"/>
<path d="M29.4165 19.7214C29.4155 18.5336 29.6846 17.3611 30.2037 16.2927C30.7227 15.2243 31.478 14.288 32.4124 13.5547C31.2553 12.6452 29.8656 12.0795 28.4022 11.9225C26.9389 11.7654 25.4608 12.0232 24.1371 12.6665C22.8133 13.3097 21.6972 14.3124 20.9164 15.56C20.1355 16.8076 19.7214 18.2497 19.7214 19.7214C19.7214 21.1932 20.1355 22.6353 20.9164 23.8829C21.6972 25.1304 22.8133 26.1332 24.1371 26.7764C25.4608 27.4196 26.9389 27.6775 28.4022 27.5204C29.8656 27.3633 31.2553 26.7977 32.4124 25.8882C31.478 25.1548 30.7227 24.2185 30.2037 23.1501C29.6846 22.0817 29.4155 20.9092 29.4165 19.7214Z" fill="#EB001B"/>
<path d="M45.103 19.7214C45.103 21.1932 44.689 22.6353 43.9082 23.8828C43.1274 25.1304 42.0113 26.1331 40.6876 26.7764C39.3638 27.4196 37.8858 27.6775 36.4225 27.5204C34.9591 27.3633 33.5695 26.7977 32.4124 25.8882C33.346 25.1541 34.1007 24.2176 34.6196 23.1494C35.1386 22.0812 35.4082 20.9091 35.4082 19.7214C35.4082 18.5338 35.1386 17.3617 34.6196 16.2935C34.1007 15.2252 33.346 14.2888 32.4124 13.5547C33.5695 12.6452 34.9591 12.0795 36.4225 11.9225C37.8858 11.7654 39.3638 12.0232 40.6876 12.6665C42.0113 13.3097 43.1274 14.3125 43.9082 15.56C44.689 16.8076 45.103 18.2497 45.103 19.7214Z" fill="#F79E1B"/>
<path d="M44.3546 24.5819V24.3294H44.4564V24.2779H44.1971V24.3294H44.299V24.5819H44.3546ZM44.8581 24.5819V24.2774H44.7786L44.6872 24.4868L44.5957 24.2774H44.5162V24.5819H44.5723V24.3522L44.658 24.5502H44.7162L44.802 24.3517V24.5819H44.8581Z" fill="#F79E1B"/>
</g>
<defs>
<filter id="filter0_dd_13_791" x="6.96182e-05" y="3.48091e-05" width="64.9911" height="48.4071" filterUnits="userSpaceOnUse" color-interpolation-filters="sRGB">
<feFlood flood-opacity="0" result="BackgroundImageFix"/>
<feColorMatrix in="SourceAlpha" type="matrix" values="0 0 0 0 0 0 0 0 0 0 0 0 0 0 0 0 0 0 127 0" result="hardAlpha"/>
<feOffset dy="0.448214"/>
<feGaussianBlur stdDeviation="2.24107"/>
<feColorMatrix type="matrix" values="0 0 0 0 0.717647 0 0 0 0 0.717647 0 0 0 0 0.717647 0 0 0 0.08 0"/>
<feBlend mode="normal" in2="BackgroundImageFix" result="effect1_dropShadow_13_791"/>
<feColorMatrix in="SourceAlpha" type="matrix" values="0 0 0 0 0 0 0 0 0 0 0 0 0 0 0 0 0 0 127 0" result="hardAlpha"/>
<feOffset dy="4.48214"/>
<feGaussianBlur stdDeviation="4.48214"/>
<feColorMatrix type="matrix" values="0 0 0 0 0.717647 0 0 0 0 0.717647 0 0 0 0 0.717647 0 0 0 0.08 0"/>
<feBlend mode="normal" in2="effect1_dropShadow_13_791" result="effect2_dropShadow_13_791"/>
<feBlend mode="normal" in="SourceGraphic" in2="effect2_dropShadow_13_791" result="shape"/>
</filter>
</defs>
</svg>
