<svg width="65" height="49" viewBox="0 0 65 49" fill="none" xmlns="http://www.w3.org/2000/svg">
<g filter="url(#filter0_dd_13_795)">
<rect x="9.18848" y="4.7063" width="46.6143" height="30.0304" rx="5.37857" fill="white"/>
<rect x="9.07642" y="4.59425" width="46.8384" height="30.2545" rx="5.49062" stroke="#D6DCE5" stroke-width="0.224107"/>
<path d="M24.2655 15.7878C24.5765 15.3988 24.7875 14.8765 24.7319 14.3428C24.2766 14.3654 23.7211 14.6431 23.3994 15.0324C23.1106 15.3658 22.855 15.9099 22.9217 16.4213C23.4327 16.4656 23.9433 16.1658 24.2655 15.7878Z" fill="#000008"/>
<path d="M24.7261 16.5211C23.9839 16.4769 23.3529 16.9423 22.9985 16.9423C22.6439 16.9423 22.1012 16.5434 21.5141 16.5542C20.7501 16.5654 20.0412 16.9974 19.6535 17.6844C18.856 19.0589 19.443 21.0977 20.2185 22.2171C20.5951 22.7709 21.049 23.3807 21.647 23.3588C22.212 23.3366 22.4335 22.9929 23.1203 22.9929C23.8066 22.9929 24.0061 23.3588 24.6042 23.3477C25.2245 23.3366 25.6123 22.7936 25.9889 22.2392C26.4209 21.6079 26.5977 20.9983 26.6089 20.9649C26.5977 20.9538 25.4128 20.4992 25.4018 19.1362C25.3906 17.9949 26.3321 17.4521 26.3764 17.4184C25.8448 16.6321 25.0141 16.5434 24.7261 16.5211Z" fill="#000008"/>
<path d="M31.1881 14.9766C32.8012 14.9766 33.9244 16.0885 33.9244 17.7073C33.9244 19.3319 32.7781 20.4496 31.1477 20.4496H29.3617V23.2898H28.0714V14.9766L31.1881 14.9766ZM29.3617 19.3665H30.8423C31.9658 19.3665 32.6052 18.7616 32.6052 17.7131C32.6052 16.6646 31.9658 16.0655 30.8481 16.0655H29.3617V19.3665Z" fill="#000008"/>
<path d="M34.2615 21.5673C34.2615 20.5071 35.0738 19.8562 36.5142 19.7755L38.1733 19.6776V19.211C38.1733 18.5369 37.7181 18.1337 36.9578 18.1337C36.2375 18.1337 35.7881 18.4793 35.6788 19.0209H34.5036C34.5727 17.9262 35.5059 17.1197 37.0038 17.1197C38.4729 17.1197 39.4118 17.8974 39.4118 19.113V23.2898H38.2193V22.2931H38.1906C37.8392 22.9672 37.0729 23.3934 36.278 23.3934C35.0912 23.3934 34.2615 22.656 34.2615 21.5673ZM38.1733 21.02V20.5418L36.6811 20.6339C35.9379 20.6858 35.5174 21.0142 35.5174 21.5327C35.5174 22.0626 35.9553 22.4083 36.6236 22.4083C37.4934 22.4083 38.1733 21.8092 38.1733 21.02Z" fill="#000008"/>
<path d="M40.5377 25.5193V24.5111C40.6297 24.5341 40.8371 24.5341 40.9409 24.5341C41.5169 24.5341 41.8281 24.2922 42.0181 23.67C42.0181 23.6585 42.1277 23.3013 42.1277 23.2955L39.9386 17.2291H41.2865L42.8191 22.1606H42.842L44.3746 17.2291H45.688L43.418 23.6066C42.8998 25.0757 42.3006 25.5481 41.0447 25.5481C40.9409 25.5481 40.6297 25.5366 40.5377 25.5193Z" fill="#000008"/>
</g>
<defs>
<filter id="filter0_dd_13_795" x="6.96182e-05" y="3.48091e-05" width="64.9911" height="48.4071" filterUnits="userSpaceOnUse" color-interpolation-filters="sRGB">
<feFlood flood-opacity="0" result="BackgroundImageFix"/>
<feColorMatrix in="SourceAlpha" type="matrix" values="0 0 0 0 0 0 0 0 0 0 0 0 0 0 0 0 0 0 127 0" result="hardAlpha"/>
<feOffset dy="0.448214"/>
<feGaussianBlur stdDeviation="2.24107"/>
<feColorMatrix type="matrix" values="0 0 0 0 0.717647 0 0 0 0 0.717647 0 0 0 0 0.717647 0 0 0 0.08 0"/>
<feBlend mode="normal" in2="BackgroundImageFix" result="effect1_dropShadow_13_795"/>
<feColorMatrix in="SourceAlpha" type="matrix" values="0 0 0 0 0 0 0 0 0 0 0 0 0 0 0 0 0 0 127 0" result="hardAlpha"/>
<feOffset dy="4.48214"/>
<feGaussianBlur stdDeviation="4.48214"/>
<feColorMatrix type="matrix" values="0 0 0 0 0.717647 0 0 0 0 0.717647 0 0 0 0 0.717647 0 0 0 0.08 0"/>
<feBlend mode="normal" in2="effect1_dropShadow_13_795" result="effect2_dropShadow_13_795"/>
<feBlend mode="normal" in="SourceGraphic" in2="effect2_dropShadow_13_795" result="shape"/>
</filter>
</defs>
</svg>
