<svg width="598" height="30" viewBox="0 0 598 30" fill="none" xmlns="http://www.w3.org/2000/svg">
<path d="M15.8666 29.8667C6.23325 29.8667 -8.13454e-05 23.9 -8.13454e-05 14.9333C-8.13454e-05 5.96667 6.23325 0 15.8666 0C25.4999 0 31.7333 5.96667 31.7333 14.9333C31.7333 23.9 25.4999 29.8667 15.8666 29.8667ZM15.8666 21.9C19.5333 21.9 22.5666 19.3667 22.5666 14.9333C22.5666 10.5 19.5333 7.96667 15.8666 7.96667C12.1999 7.96667 9.16659 10.5 9.16659 14.9333C9.16659 19.3667 12.1999 21.9 15.8666 21.9ZM33.5859 28.9333V0.933335H44.1859L53.4859 16.0667H54.3192V0.933335H63.3192V28.9333H52.9525L43.4192 13.8H42.5859V28.9333H33.5859ZM65.6562 28.9333V0.933335H90.8895V8.33333H74.8895V11.9H90.2895V17.9667H74.8895V21.5333H90.8895V28.9333H65.6562ZM101.906 28.9333V0.933335H111.14V21.2333H126.073V28.9333H101.906ZM128.391 28.9333V0.933335H137.624V28.9333H128.391ZM139.953 28.9333V0.933335H165.12V8.63333H149.186V12.4333H164.42V19.1H149.186V28.9333H139.953ZM167.453 28.9333V0.933335H192.686V8.33333H176.686V11.9H192.086V17.9667H176.686V21.5333H192.686V28.9333H167.453ZM233.836 13.4667V28.9333H228.903L228.77 25.2333C226.836 27.9 223.336 29.8667 218.403 29.8667C209.803 29.8667 203.203 23.9 203.203 14.9333C203.203 5.96667 209.47 0 219.203 0C225.836 0 232.603 3.2 233.703 10.7333H224.536C223.97 9.33333 222.136 7.96667 219.403 7.96667C215.27 7.96667 212.37 10.7 212.37 14.9333C212.37 19.1667 215.336 21.9 219.136 21.9C220.503 21.9 224.003 21.5333 224.936 18.2667H218.77V13.4667H233.836ZM265.42 28.9333H256.354L252.554 21.7H245.554V28.9333H236.32V0.933335H252.354C260.12 0.933335 264.487 4.26667 264.487 11.6333C264.487 15.4 262.787 18.0667 260.42 19.7333L265.42 28.9333ZM245.554 8.6V14.8H251.72C254.054 14.8 255.254 13.6667 255.254 11.7C255.254 9.73333 254.054 8.6 251.72 8.6H245.554ZM289.75 28.9333L288.517 25.2333H276.517L275.283 28.9333H265.75L276.05 0.933335H288.983L299.283 28.9333H289.75ZM278.783 18.4H286.25L283.317 9.6H281.717L278.783 18.4ZM300.617 28.9333V0.933335H316.517C324.15 0.933335 328.684 4.33333 328.684 11.8667C328.684 19.4 324.15 22.8 316.55 22.8H309.85V28.9333H300.617ZM309.85 15.1333H315.717C317.95 15.1333 319.384 14.0333 319.384 11.8667C319.384 9.7 317.95 8.6 315.75 8.6H309.85V15.1333ZM350.795 0.933335H360.029V28.9333H350.795V18.8H339.929V28.9333H330.695V0.933335H339.929V11.0667H350.795V0.933335ZM362.375 28.9333V0.933335H371.608V28.9333H362.375ZM389.171 29.8667C379.737 29.8667 373.437 23.9 373.437 14.9333C373.437 5.96667 379.737 0 389.171 0C396.004 0 403.004 3 403.937 12.4667H395.137C394.371 9.4 392.204 7.96667 389.171 7.96667C385.504 7.96667 382.604 10.7 382.604 14.9333C382.604 19.1667 385.504 21.9 389.171 21.9C392.204 21.9 394.371 20.4667 395.137 17.3333H403.937C403.004 26.8667 396.071 29.8667 389.171 29.8667ZM442.63 0.933335V8.63333H432.563V28.9333H423.33V8.63333H413.263V0.933335H442.63ZM443.948 18.9333V11.2333H463.281V18.9333H443.948ZM479.107 29.8667C469.44 29.8333 464.873 26.8333 465.107 19.5667H473.407C473.507 21.4667 475.107 22.6333 479.107 22.6667C482.64 22.7 484.273 21.7 484.273 20.4C484.273 19.5 483.773 18.5667 481.04 18.1667L477.44 17.6C472.14 16.7333 465.773 16.1 465.773 8.93333C465.773 3.4 470.273 0 479.173 0C487.207 0 492.807 2.23333 492.64 10.2333H484.407C484.073 8.36667 482.507 7.2 478.973 7.2C475.907 7.2 474.64 8.13333 474.64 9.4C474.64 10.2 475.14 11.1667 477.273 11.5L480.24 12C485.807 12.9333 493.44 13.1 493.44 20.7667C493.44 26.8667 488.707 29.9 479.107 29.8667ZM515.287 0.933335H524.521V28.9333H515.287V18.8H504.421V28.9333H495.187V0.933335H504.421V11.0667H515.287V0.933335ZM526.867 28.9333V0.933335H536.1V28.9333H526.867ZM567.53 28.9333H558.463L554.663 21.7H547.663V28.9333H538.43V0.933335H554.463C562.23 0.933335 566.596 4.26667 566.596 11.6333C566.596 15.4 564.896 18.0667 562.53 19.7333L567.53 28.9333ZM547.663 8.6V14.8H553.83C556.163 14.8 557.363 13.6667 557.363 11.7C557.363 9.73333 556.163 8.6 553.83 8.6H547.663ZM597.903 0.933335V8.63333H587.836V28.9333H578.603V8.63333H568.536V0.933335H597.903Z" fill="black"/>
</svg>
